<?xml version="1.0" encoding="utf-8"?>
<svg viewBox="0 81.058 1081.058 363.481"  xmlns:bx="https://boxy-svg.com">
  <defs>
    <pattern id="pattern-0-0" patternTransform="matrix(0.156721, 0.134838, -0.670074, 0.778817, 674.161255, 243.082794)" />
    <pattern x="0" y="0" width="25" height="25" patternUnits="userSpaceOnUse" >
      <rect x="0" y="0" width="50" height="100" style="fill: black;"/>
    </pattern>
  </defs>
  <path opacity="1.000000" stroke="none" d="M 300 298.666 C 300.239 292.148 300.501 286.067 300.762 279.087 C 300.673 275.202 300.586 272.216 300.59 268.859 C 300.623 267.733 300.565 266.978 300.507 266.223 C 301.094 265.895 301.68 265.567 302.979 265.218 C 304.444 265.17 305.195 265.142 305.946 265.114 C 324.626 265.141 343.307 265.167 362.79 265.192 C 364.045 265.164 364.497 265.138 364.948 265.112 C 394.979 265.151 425.01 265.189 455.54 265.692 C 456.044 269.138 456.318 272.148 455.992 275.092 C 455.512 279.425 457.392 280.483 461.372 280.245 C 466.413 279.944 471.485 280.173 476.974 280.173 C 476.974 293.406 476.974 305.801 476.504 318.206 C 427.671 318.225 379.308 318.232 330.945 318.239 C 330.945 318.239 330.944 318.232 330.93 317.78 C 330.891 314.91 331.337 312.356 330.68 310.126 C 330.233 308.606 328.244 307.54 326.945 306.271 C 321.589 306.261 316.232 306.252 309.958 306.241 C 306.094 306.182 303.146 306.125 300.199 306.068 C 300.14 303.747 300.081 301.425 300 298.666 Z" class="salle_conf" id="salle_conf_2" lang="fr" style="fill: rgb(150, 150, 150);">
    <title>Salle de Conférence 2</title>
  </path>
  <path opacity="1.000000" stroke="none" d="M 249.328 302.998 C 248.709 303.328 248.644 250.226 249.14 225.313 C 265.021 225.3 280.463 225.332 295.904 225.364 C 295.955 230.765 296.801 302.785 295.653 302.989" style="stroke-opacity: 0.88; fill: rgb(150, 150, 150);" lang="fr" class="entree" id="entree_1">
    <title>Entrée N° 1</title>
  </path>
  <path opacity="1.000000" stroke="none" d="M 245.911 301.972 C 172.505 301.985 99.1 301.999 25.225 302 C 24.738 300.272 24.72 298.557 24.71 296.043 C 24.696 294.496 24.673 293.747 24.65 292.999 C 24.688 287.003 25.041 280.988 24.664 275.019 C 24.367 270.318 25.625 268.445 30.621 268.834 C 36.25 269.272 41.961 268.631 47.597 269.029 C 52.304 269.361 53.898 268.021 53.801 263.065 C 53.487 246.914 53.819 230.751 53.591 214.597 C 53.532 210.384 54.416 208.872 59.027 208.885 C 119.491 209.046 179.956 208.992 240.421 208.992 C 242.046 208.992 243.671 208.992 245.391 208.992 C 245.724 211.164 245.971 212.78 246.448 215.03 C 246.685 216.101 246.692 216.538 246.7 216.974 C 246.559 217.851 246.418 218.729 246.477 220.141 C 246.695 221.117 246.712 221.556 246.706 222.464 C 246.698 246.924 246.714 270.917 246.575 295.026 C 246.524 295.455 246.627 295.767 246.668 296.446 C 246.374 298.532 246.142 300.252 245.911 301.972" lang="fr" id="salle_conf_1" class="salle_conf" style="fill: rgb(150, 150, 150);">
    <desc>C'est notre plus grande salle de conférence</desc>
    <title>Salle de Conférence 1</title>
  </path>
  <rect x="480.935" y="248.027" width="50.341" height="82.765" style="stroke: rgb(0, 0, 0); fill: rgb(150, 150, 150);" lang="fr" id="entree_2" class="entree escalier">
    <title>Entrée 2</title>
  </rect>
  <path fill="#BBE5F4" opacity="1.000000" stroke="none" d="M 1069.008 300.732 C 1042.184 301.2 1015.358 301.322 988.535 301.159 C 966.414 301.025 944.294 300.25 922.175 300.297 C 883.226 300.381 844.279 300.941 805.33 301.145 C 797.206 301.188 789.079 300.272 780.955 300.301 C 770.496 300.337 760.04 301.027 749.58 301.129 C 745.569 301.168 746.011 303.587 746.012 306.106 C 746.016 329.932 746.015 353.757 746.009 377.583 C 746.007 384.186 745.999 384.196 739.641 384.199 C 725.979 384.207 712.314 384.055 698.656 384.294 C 694.469 384.368 692.226 383.51 693.009 378.867 C 693.646 375.088 691.907 374.093 688.234 374.104 C 646.248 374.22 604.262 374.18 562.276 374.197 C 561.137 374.198 559.998 374.367 558.815 374.462 C 557.143 376.792 559.655 382.185 553.13 380.927 C 551.595 380.523 550.786 380.272 549.976 380.272 C 520.897 380.25 491.817 380.24 462.738 380.291 C 461.502 380.293 460.267 380.887 459.032 381.206 C 458.862 381.186 458.692 381.166 458.256 380.729 C 457.582 378.212 457.415 376.021 456.669 374.05 C 456.276 373.012 454.872 372.356 453.925 371.528 C 453.286 372.376 452.648 373.225 452.009 374.073 C 420.652 374.094 389.295 374.115 357.39 373.764 C 354.427 372.188 351.886 369.459 349.581 373.275 C 348.11 375.709 347.18 378.47 346.008 381.085 C 345.255 381.102 344.503 381.119 343.27 380.73 C 341.107 379.95 339.427 379.268 337.741 379.251 C 327.778 379.148 317.813 379.253 307.849 379.179 C 302.254 379.138 300.018 376.854 300.013 371.404 C 299.997 353.469 299.991 335.533 300.022 317.598 C 300.027 314.385 299.742 310.923 304.936 311.761 C 305.801 311.901 306.974 310.136 308.472 309.231 C 314.295 309.219 319.652 309.229 325.051 309.592 C 325.475 311.863 326.67 314.098 326.072 315.634 C 324.732 319.075 325.765 320.528 329.004 321.199 C 329.007 321.2 329.008 321.206 329.024 321.61 C 330.767 322.723 332.483 323.99 334.223 324.025 C 337.838 324.097 341.465 323.247 345.087 323.241 C 385.389 323.176 425.691 323.149 465.991 323.287 C 469.663 323.3 473.331 324.534 477.015 325.601 C 477.018 327.067 477.008 328.134 476.641 329.273 C 474.57 331.289 473.875 333.059 477.327 334.172 C 477.555 334.177 478.009 334.219 478.017 334.58 C 478.654 335.63 479.282 336.321 479.911 337.011 C 480.609 336.093 481.307 335.175 482.474 334.236 C 499.635 334.225 516.327 334.235 533.086 334.589 C 534.546 335.018 536.922 335.57 537.148 335.097 C 537.805 333.719 538.1 331.772 537.643 330.333 C 536.312 326.142 537.575 322.317 539.951 323.476 C 544.699 325.791 548.817 323.002 553.222 323.031 C 596.843 323.311 640.467 323.161 684.09 323.256 C 688.864 323.267 693.644 323.98 698.406 324.504 C 701.378 324.832 704.105 324.974 705.298 320.955 C 705.724 317.233 705.864 313.805 706.024 310.009 C 706.01 308.907 705.977 308.175 705.971 306.974 C 705.961 305.256 705.924 304.007 705.92 302.427 C 705.952 301.201 705.951 300.307 705.967 299.016 C 705.57 297.718 705.154 296.818 704.846 295.592 C 705.286 293.982 705.619 292.696 705.977 290.949 C 705.966 289.259 705.931 288.028 705.94 286.424 C 705.993 285.287 706.004 284.524 706.006 283.403 C 705.59 282.017 705.184 280.99 704.878 279.634 C 705.302 278.012 705.625 276.718 705.972 275.027 C 707.022 271.854 702.47 268.4 707.376 266.042 C 708.812 265.754 709.91 265.479 711.247 265.486 C 712.971 265.904 714.454 266.039 716.324 266.2 C 717.227 266.215 717.745 266.206 718.685 266.186 C 720.524 266.15 721.939 266.124 723.697 266.112 C 724.956 266.125 725.873 266.124 727.213 266.151 C 729.047 266.18 730.457 266.181 732.262 266.207 C 733.185 266.218 733.713 266.206 734.659 266.185 C 736.475 266.158 737.872 266.14 739.617 266.132 C 740.89 266.134 741.816 266.124 743.112 266.182 C 744.039 266.697 744.595 267.145 745.179 267.906 C 745.142 268.637 745.076 269.056 745.049 269.858 C 745.792 271.542 746.497 272.843 747.452 274.24 C 748.487 274.278 749.272 274.219 750.469 274.185 C 752.256 274.2 753.632 274.191 755.235 274.349 C 756.336 274.395 757.209 274.274 758.501 274.176 C 760.327 274.189 761.733 274.18 763.391 274.257 C 764.439 274.285 765.236 274.227 766.447 274.189 C 768.248 274.2 769.633 274.19 771.243 274.348 C 772.328 274.399 773.19 274.281 774.469 274.186 C 776.28 274.197 777.674 274.185 779.324 274.264 C 780.398 274.293 781.215 274.232 782.444 274.194 C 784.233 274.203 785.609 274.188 787.209 274.347 C 788.299 274.405 789.164 274.288 790.444 274.195 C 792.244 274.206 793.63 274.192 795.222 274.331 C 796.259 274.377 797.089 274.272 798.342 274.19 C 800.173 274.204 801.582 274.194 803.251 274.296 C 804.356 274.327 805.201 274.247 806.461 274.193 C 808.254 274.205 809.635 274.192 811.217 274.33 C 812.228 274.371 813.038 274.263 814.269 274.181 C 816.094 274.187 817.498 274.167 819.136 274.327 C 820.26 274.395 821.149 274.282 822.451 274.193 C 824.242 274.203 825.621 274.19 827.193 274.334 C 828.176 274.377 828.965 274.263 830.176 274.177 C 832.01 274.183 833.421 274.161 835.076 274.318 C 836.226 274.388 837.133 274.277 838.453 274.192 C 840.245 274.202 841.624 274.188 843.187 274.324 C 844.097 274.357 844.823 274.24 845.979 274.156 C 847.839 274.17 849.271 274.152 850.964 274.302 C 852.152 274.372 853.078 274.273 854.411 274.196 C 858.736 274.196 862.654 274.173 866.839 274.3 C 868.052 274.357 868.998 274.265 870.368 274.195 C 872.199 274.129 873.606 274.041 875.254 274.077 C 876.334 274.188 877.172 274.175 878.432 274.187 C 879.981 274.194 881.108 274.176 882.489 274.254 C 883.767 274.286 884.791 274.224 886.263 274.186 C 888.21 274.199 889.708 274.186 891.336 274.341 C 891.927 274.403 892.389 274.297 893.296 274.204 C 895.219 274.198 896.699 274.18 898.431 274.247 C 899.666 274.267 900.65 274.202 902.064 274.168 C 904.512 274.198 906.529 274.198 908.889 274.198 C 908.889 271.68 908.889 269.281 908.918 266.54 C 908.959 265.507 908.97 264.817 908.987 263.715 C 908.967 259.187 908.943 255.07 908.942 250.605 C 908.983 249.554 909.002 248.853 909.021 248.182 C 909.021 248.213 908.959 248.215 909.307 248.199 C 910.696 247.772 911.737 247.361 912.93 247.199 C 913.39 247.667 913.697 247.886 914.381 248.132 C 915.506 248.092 916.255 248.027 917.298 247.893 C 918.741 247.89 919.889 247.954 921.436 248.079 C 922.911 248.136 923.987 248.133 925.414 248.134 C 926.468 248.129 927.17 248.12 928.312 248.135 C 930.221 248.143 931.69 248.126 933.493 248.112 C 934.702 248.076 935.577 248.037 936.911 248.055 C 938.598 248.118 939.828 248.126 941.402 248.131 C 942.434 248.118 943.121 248.106 944.246 248.128 C 946.147 248.151 947.61 248.14 949.434 248.136 C 950.517 248.139 951.239 248.136 952.385 248.144 C 954.223 248.148 955.637 248.141 957.402 248.131 C 958.456 248.122 959.157 248.116 960.291 248.139 C 962.163 248.169 963.603 248.17 965.37 248.174 C 966.132 248.207 966.567 248.238 966.996 248.666 C 967.009 250.12 967.028 251.177 967.008 252.611 C 966.993 253.741 967.016 254.496 967.029 255.676 C 967.037 257.524 967.055 258.946 967.044 260.758 C 967.015 261.934 967.015 262.72 967.02 263.897 C 967.038 265.603 967.052 266.918 967.03 268.599 C 967.01 269.702 967.025 270.438 967.032 271.555 C 968.045 272.684 969.067 273.432 970.346 274.269 C 971.413 274.293 972.223 274.229 973.429 274.192 C 974.887 274.215 975.947 274.212 977.247 274.204 C 977.487 274.201 977.965 274.164 978.199 274.33 C 979.3 274.389 980.167 274.281 981.449 274.197 C 983.248 274.206 984.632 274.193 986.272 274.274 C 987.35 274.305 988.172 274.243 989.408 274.201 C 991.204 274.209 992.587 274.196 994.232 274.29 C 995.342 274.322 996.191 274.246 997.45 274.194 C 999.235 274.208 1000.608 274.196 1002.343 274.249 C 1003.432 274.261 1004.16 274.209 1005.312 274.185 C 1007.148 274.201 1008.561 274.19 1010.235 274.282 C 1011.337 274.315 1012.179 274.244 1013.433 274.198 C 1015.224 274.209 1016.602 274.197 1018.335 274.25 C 1019.409 274.261 1020.127 274.208 1021.135 274.178 C 1021.618 274.204 1021.812 274.206 1022.392 274.221 C 1023.809 274.204 1024.84 274.175 1026.114 274.309 C 1027.245 274.373 1028.132 274.272 1029.431 274.196 C 1031.219 274.202 1032.594 274.184 1034.161 274.318 C 1035.117 274.359 1035.879 274.248 1037.07 274.17 C 1038.929 274.181 1040.359 274.16 1042.045 274.297 C 1043.202 274.363 1044.102 274.272 1045.403 274.203 C 1049.04 274.086 1053.096 276.254 1054.882 271.718 C 1056.223 268.313 1056.912 264.651 1057.884 260.796 C 1057.855 259.878 1057.834 259.268 1057.851 258.254 C 1057.893 253.598 1057.897 249.346 1057.87 244.799 C 1057.551 244.019 1057.262 243.532 1056.99 242.842 C 1057.007 242.638 1057.021 242.229 1057.183 242.126 C 1057.408 241.912 1057.551 241.754 1057.518 241.698 C 1057.396 241.486 1057.216 241.308 1057.064 240.787 C 1056.717 239.732 1056.363 239.007 1055.817 238.138 C 1055.729 237.4 1055.832 236.806 1056.275 236.037 C 1057.044 233.618 1057.472 231.374 1057.894 228.821 C 1057.893 228.099 1057.899 227.687 1057.917 226.81 C 1057.657 222.317 1057.386 218.288 1057.174 213.953 C 1057.459 212.858 1057.683 212.069 1057.924 210.807 C 1057.876 206.107 1057.812 201.881 1057.768 197.379 C 1057.813 196.536 1057.839 195.97 1057.893 194.975 C 1059.101 190.246 1056.399 188.974 1052.639 188.229 C 1051.546 188.222 1050.817 188.229 1049.732 188.208 C 1048.665 188.222 1047.955 188.264 1046.772 188.266 C 1045.033 188.269 1043.766 188.311 1042.17 188.329 C 1040.939 188.291 1040.038 188.278 1038.721 188.246 C 1036.919 188.225 1035.534 188.223 1033.794 188.197 C 1032.738 188.22 1032.036 188.267 1030.914 188.275 C 1029.098 188.226 1027.701 188.217 1025.915 188.192 C 1024.759 188.211 1023.992 188.246 1022.804 188.258 C 1020.982 188.228 1019.581 188.222 1017.821 188.194 C 1016.749 188.218 1016.035 188.264 1014.902 188.271 C 1013.085 188.225 1011.688 188.217 1009.921 188.19 C 1008.823 188.223 1008.095 188.274 1006.937 188.288 C 1005.07 188.238 1003.635 188.226 1001.84 188.191 C 1000.764 188.215 1000.049 188.262 998.912 188.271 C 997.085 188.223 995.68 188.215 993.907 188.192 C 992.813 188.227 992.086 188.276 990.933 188.282 C 989.091 188.229 987.674 188.219 985.888 188.188 C 984.793 188.216 984.065 188.265 982.916 188.274 C 981.086 188.225 979.678 188.216 977.916 188.188 C 976.865 188.233 976.169 188.296 975.054 188.311 C 973.231 188.243 971.829 188.222 970.034 188.181 C 968.867 188.211 968.093 188.262 966.909 188.276 C 965.004 188.586 963.508 188.933 961.694 189.235 C 960.566 188.907 959.758 188.626 958.531 188.293 C 956.99 188.256 955.868 188.27 954.404 188.251 C 953.155 188.252 952.247 188.287 950.91 188.279 C 949.049 188.23 947.616 188.223 945.783 188.191 C 944.851 188.182 944.319 188.197 943.409 188.212 C 941.528 188.207 940.023 188.201 938.123 188.181 C 936.954 188.225 936.18 188.283 935.002 188.301 C 933.068 188.622 931.539 188.982 929.691 189.287 C 928.568 188.926 927.765 188.62 926.552 188.274 C 925.047 188.243 923.951 188.254 922.515 188.237 C 921.279 188.263 920.383 188.315 919.109 188.325 C 917.275 188.593 915.819 188.903 914.164 188.917 C 913.272 188.487 912.581 188.355 911.477 188.221 C 909.688 188.23 908.311 188.241 906.591 188.223 C 905.35 188.261 904.453 188.329 903.135 188.343 C 900.144 188.295 897.574 188.3 894.605 188.261 C 893.139 188.226 892.071 188.234 890.663 188.215 C 889.439 188.271 888.556 188.355 887.228 188.374 C 884.192 188.603 881.601 188.897 878.79 188.912 C 877.397 188.501 876.225 188.368 874.695 188.201 C 873.623 188.205 872.909 188.242 871.781 188.264 C 869.232 188.625 867.097 189 864.636 189.34 C 863.875 189.274 863.438 189.244 862.789 188.929 C 861.407 188.508 860.238 188.37 858.714 188.203 C 857.653 188.213 856.946 188.252 855.773 188.257 C 854.06 188.26 852.812 188.297 851.22 188.31 C 849.941 188.274 849.005 188.263 847.655 188.237 C 845.863 188.225 844.485 188.227 842.754 188.199 C 841.701 188.215 841.001 188.262 839.873 188.271 C 838.024 188.228 836.604 188.223 834.803 188.199 C 833.672 188.21 832.92 188.24 831.753 188.254 C 829.951 188.232 828.565 188.225 826.822 188.192 C 825.756 188.214 825.048 188.263 823.916 188.274 C 822.075 188.229 820.658 188.221 818.868 188.196 C 817.759 188.219 817.022 188.259 815.861 188.269 C 814.028 188.231 812.619 188.222 810.838 188.203 C 809.733 188.226 809 188.259 807.851 188.26 C 806.056 188.223 804.677 188.217 802.924 188.188 C 801.813 188.215 801.075 188.265 799.918 188.275 C 798.097 188.226 796.697 188.217 794.917 188.188 C 793.784 188.21 793.031 188.252 791.861 188.262 C 790.055 188.223 788.665 188.216 786.914 188.191 C 785.841 188.228 785.129 188.281 783.996 188.298 C 782.172 188.243 780.767 188.223 778.975 188.188 C 777.82 188.215 777.052 188.257 775.867 188.263 C 774.055 188.221 772.661 188.214 770.915 188.193 C 769.876 188.24 769.188 188.3 768.078 188.312 C 766.249 188.242 764.841 188.222 763.036 188.187 C 761.858 188.216 761.078 188.26 759.878 188.266 C 758.058 188.224 756.658 188.218 754.913 188.191 C 753.887 188.237 753.208 188.304 752.096 188.325 C 749.937 188.381 748.21 188.484 746.008 188.615 C 746.008 182.304 746.008 176.252 746.008 170.2 C 853.571 170.2 961.134 170.2 1069.008 170.2 C 1069.008 213.554 1069.008 256.909 1069.008 300.732 Z" transform="matrix(1, -0.000353, 0.000353, 1, -0.097826, 0.241647)" lang="fr" id="balcon_1" class="balcon">
    <title>Balcon 1</title>
  </path>
  <path fill="#BDE5F4" opacity="1.000000" stroke="none" d="M 17.431 301.972 C 17.657 303.186 17.883 304.4 18.403 306.251 C 19.511 306.941 20.326 306.993 21.141 307.045 C 25.755 307.096 30.37 307.147 35.828 307.192 C 107.795 307.173 178.917 307.159 250.257 307.12 C 250.474 307.095 250.914 307.058 251.099 307.337 C 251.695 307.763 252.106 307.91 252.892 307.858 C 256.95 307.625 260.634 307.518 264.317 307.571 C 273.895 307.708 283.473 307.915 293.359 308.053 C 294.454 307.944 295.239 307.877 296.367 307.632 C 297.195 307.3 297.683 307.145 298.336 307.211 C 298.976 307.613 299.451 307.795 300.013 308.45 C 299.846 315.003 299.593 321.083 299.339 327.164 C 199.835 327.165 100.331 327.166 0.373 327.167 C -0.082 318.481 -0.082 309.793 0.24 300.65 C 0.99 300.181 1.418 300.167 2.212 300.213 C 3.317 300.233 4.054 300.193 5.193 300.171 C 6.927 300.177 8.262 300.165 9.952 300.212 C 11.023 300.227 11.739 300.182 12.456 300.136 C 13.791 300.159 15.127 300.181 16.944 300.479 C 17.427 301.16 17.429 301.566 17.431 301.972 Z" style="" transform="matrix(1, -0.000353, 0.000353, 1, -0.11071, 0.052974)" id="balcon_2" class="balcon">
    <title>Balcon 2</title>
  </path>
  <g transform="matrix(0.93105, 0, 0, 0.877013, 31.926971, 37.333786)" style="" id="escalier_3" class="escalier" bx:origin="0.482764 0.5">
    <rect x="463.044" y="393" width="82.765" height="39.42" style="stroke-opacity: 0.69; stroke-dashoffset: -3px; paint-order: stroke markers; fill-rule: nonzero; fill: rgb(226, 249, 254);" rx="8.532" ry="8.532"/>
    <path opacity="1.000000" stroke="none" d="M 499.435 396.816 C 510.737 396.816 521.709 396.816 532.681 396.816 C 532.681 397.253 532.682 397.693 532.682 398.133 C 512.724 398.133 492.766 398.133 472.809 398.133 C 472.801 397.693 472.794 397.253 472.786 396.816 C 481.559 396.816 490.332 396.816 499.435 396.816 Z" style="fill: rgb(172, 168, 168);"/>
    <path opacity="1.000000" stroke="none" d="M 499.141 402.593 C 510.443 402.593 521.415 402.593 532.387 402.593 C 532.387 403.03 532.388 403.47 532.388 403.91 C 512.43 403.91 492.472 403.91 472.515 403.91 C 472.507 403.47 472.5 403.03 472.492 402.593 C 481.265 402.593 490.038 402.593 499.141 402.593 Z" style="fill: rgb(172, 168, 168);"/>
    <path opacity="1.000000" stroke="none" d="M 499.483 408.511 C 510.785 408.511 521.757 408.511 532.729 408.511 C 532.729 408.948 532.73 409.388 532.73 409.828 C 512.772 409.828 492.814 409.828 472.857 409.828 C 472.849 409.388 472.842 408.948 472.834 408.511 C 481.607 408.511 490.38 408.511 499.483 408.511 Z" style="fill: rgb(172, 168, 168);"/>
    <path opacity="1.000000" stroke="none" d="M 499.554 413.528 C 510.856 413.528 521.828 413.528 532.8 413.528 C 532.8 413.965 532.801 414.405 532.801 414.845 C 512.843 414.845 492.885 414.845 472.928 414.845 C 472.92 414.405 472.913 413.965 472.905 413.528 C 481.678 413.528 490.451 413.528 499.554 413.528 Z" style="fill: rgb(172, 168, 168);"/>
    <path opacity="1.000000" stroke="none" d="M 499.766 424.804 C 511.068 424.804 522.04 424.804 533.012 424.804 C 533.012 425.241 533.013 425.681 533.013 426.121 C 513.055 426.121 493.097 426.121 473.14 426.121 C 473.132 425.681 473.125 425.241 473.117 424.804 C 481.89 424.804 490.663 424.804 499.766 424.804 Z" style="fill: rgb(172, 168, 168);"/>
    <path opacity="1.000000" stroke="none" d="M 499.315 420.005 C 510.617 420.005 521.589 420.005 532.561 420.005 C 532.561 420.442 532.562 420.882 532.562 421.322 C 512.604 421.322 492.646 421.322 472.689 421.322 C 472.681 420.882 472.674 420.442 472.666 420.005 C 481.439 420.005 490.212 420.005 499.315 420.005 Z" style="fill: rgb(172, 168, 168);"/>
  </g>
  <g transform="matrix(0.479382, 0, 0, 0.577441, 32.403831, 100.302948)" style="" id="escalier_2" bx:origin="0.482764 0.5">
    <rect x="463.044" y="393" width="82.765" height="39.42" style="stroke-opacity: 0.69; stroke-dashoffset: -3px; paint-order: stroke markers; fill-rule: nonzero; fill: rgb(226, 249, 254);" rx="8.532" ry="8.532"/>
    <path opacity="1.000000" stroke="none" d="M 499.435 396.816 C 510.737 396.816 521.709 396.816 532.681 396.816 C 532.681 397.253 532.682 397.693 532.682 398.133 C 512.724 398.133 492.766 398.133 472.809 398.133 C 472.801 397.693 472.794 397.253 472.786 396.816 C 481.559 396.816 490.332 396.816 499.435 396.816 Z" style="fill: rgb(172, 168, 168);"/>
    <path opacity="1.000000" stroke="none" d="M 499.141 402.593 C 510.443 402.593 521.415 402.593 532.387 402.593 C 532.387 403.03 532.388 403.47 532.388 403.91 C 512.43 403.91 492.472 403.91 472.515 403.91 C 472.507 403.47 472.5 403.03 472.492 402.593 C 481.265 402.593 490.038 402.593 499.141 402.593 Z" style="fill: rgb(172, 168, 168);"/>
    <path opacity="1.000000" stroke="none" d="M 499.483 408.511 C 510.785 408.511 521.757 408.511 532.729 408.511 C 532.729 408.948 532.73 409.388 532.73 409.828 C 512.772 409.828 492.814 409.828 472.857 409.828 C 472.849 409.388 472.842 408.948 472.834 408.511 C 481.607 408.511 490.38 408.511 499.483 408.511 Z" style="fill: rgb(172, 168, 168);"/>
    <path opacity="1.000000" stroke="none" d="M 499.554 413.528 C 510.856 413.528 521.828 413.528 532.8 413.528 C 532.8 413.965 532.801 414.405 532.801 414.845 C 512.843 414.845 492.885 414.845 472.928 414.845 C 472.92 414.405 472.913 413.965 472.905 413.528 C 481.678 413.528 490.451 413.528 499.554 413.528 Z" style="fill: rgb(172, 168, 168);"/>
    <path opacity="1.000000" stroke="none" d="M 499.766 424.804 C 511.068 424.804 522.04 424.804 533.012 424.804 C 533.012 425.241 533.013 425.681 533.013 426.121 C 513.055 426.121 493.097 426.121 473.14 426.121 C 473.132 425.681 473.125 425.241 473.117 424.804 C 481.89 424.804 490.663 424.804 499.766 424.804 Z" style="fill: rgb(172, 168, 168);"/>
    <path opacity="1.000000" stroke="none" d="M 499.315 420.005 C 510.617 420.005 521.589 420.005 532.561 420.005 C 532.561 420.442 532.562 420.882 532.562 421.322 C 512.604 421.322 492.646 421.322 472.689 421.322 C 472.681 420.882 472.674 420.442 472.666 420.005 C 481.439 420.005 490.212 420.005 499.315 420.005 Z" style="fill: rgb(172, 168, 168);"/>
  </g>
  <g transform="matrix(0.479382, 0, 0, 0.7506, -99.321533, 34.948578)" style="" id="escalier_1" class="escalier" bx:origin="0.482764 0.5">
    <rect x="463.044" y="393" width="82.765" height="39.42" style="stroke-opacity: 0.69; stroke-dashoffset: -3px; paint-order: stroke markers; fill-rule: nonzero; fill: rgb(226, 249, 254);" rx="8.532" ry="8.532"/>
    <path opacity="1.000000" stroke="none" d="M 499.435 396.816 C 510.737 396.816 521.709 396.816 532.681 396.816 C 532.681 397.253 532.682 397.693 532.682 398.133 C 512.724 398.133 492.766 398.133 472.809 398.133 C 472.801 397.693 472.794 397.253 472.786 396.816 C 481.559 396.816 490.332 396.816 499.435 396.816 Z" style="fill: rgb(172, 168, 168);"/>
    <path opacity="1.000000" stroke="none" d="M 499.141 402.593 C 510.443 402.593 521.415 402.593 532.387 402.593 C 532.387 403.03 532.388 403.47 532.388 403.91 C 512.43 403.91 492.472 403.91 472.515 403.91 C 472.507 403.47 472.5 403.03 472.492 402.593 C 481.265 402.593 490.038 402.593 499.141 402.593 Z" style="fill: rgb(172, 168, 168);"/>
    <path opacity="1.000000" stroke="none" d="M 499.483 408.511 C 510.785 408.511 521.757 408.511 532.729 408.511 C 532.729 408.948 532.73 409.388 532.73 409.828 C 512.772 409.828 492.814 409.828 472.857 409.828 C 472.849 409.388 472.842 408.948 472.834 408.511 C 481.607 408.511 490.38 408.511 499.483 408.511 Z" style="fill: rgb(172, 168, 168);"/>
    <path opacity="1.000000" stroke="none" d="M 499.554 413.528 C 510.856 413.528 521.828 413.528 532.8 413.528 C 532.8 413.965 532.801 414.405 532.801 414.845 C 512.843 414.845 492.885 414.845 472.928 414.845 C 472.92 414.405 472.913 413.965 472.905 413.528 C 481.678 413.528 490.451 413.528 499.554 413.528 Z" style="fill: rgb(172, 168, 168);"/>
    <path opacity="1.000000" stroke="none" d="M 499.766 424.804 C 511.068 424.804 522.04 424.804 533.012 424.804 C 533.012 425.241 533.013 425.681 533.013 426.121 C 513.055 426.121 493.097 426.121 473.14 426.121 C 473.132 425.681 473.125 425.241 473.117 424.804 C 481.89 424.804 490.663 424.804 499.766 424.804 Z" style="fill: rgb(172, 168, 168);"/>
    <path opacity="1.000000" stroke="none" d="M 499.315 420.005 C 510.617 420.005 521.589 420.005 532.561 420.005 C 532.561 420.442 532.562 420.882 532.562 421.322 C 512.604 421.322 492.646 421.322 472.689 421.322 C 472.681 420.882 472.674 420.442 472.666 420.005 C 481.439 420.005 490.212 420.005 499.315 420.005 Z" style="fill: rgb(172, 168, 168);"/>
  </g>
  <g transform="matrix(0.479382, 0, 0, 0.555796, 700.466858, 81.572159)" style="" id="escalier_5" class="escalier" bx:origin="0.482764 0.5">
    <rect x="463.044" y="393" width="82.765" height="39.42" style="stroke-opacity: 0.69; stroke-dashoffset: -3px; paint-order: stroke markers; fill-rule: nonzero; fill: rgb(226, 249, 254);" rx="8.532" ry="8.532"/>
    <path opacity="1.000000" stroke="none" d="M 499.435 396.816 C 510.737 396.816 521.709 396.816 532.681 396.816 C 532.681 397.253 532.682 397.693 532.682 398.133 C 512.724 398.133 492.766 398.133 472.809 398.133 C 472.801 397.693 472.794 397.253 472.786 396.816 C 481.559 396.816 490.332 396.816 499.435 396.816 Z" style="fill: rgb(172, 168, 168);"/>
    <path opacity="1.000000" stroke="none" d="M 499.141 402.593 C 510.443 402.593 521.415 402.593 532.387 402.593 C 532.387 403.03 532.388 403.47 532.388 403.91 C 512.43 403.91 492.472 403.91 472.515 403.91 C 472.507 403.47 472.5 403.03 472.492 402.593 C 481.265 402.593 490.038 402.593 499.141 402.593 Z" style="fill: rgb(172, 168, 168);"/>
    <path opacity="1.000000" stroke="none" d="M 499.483 408.511 C 510.785 408.511 521.757 408.511 532.729 408.511 C 532.729 408.948 532.73 409.388 532.73 409.828 C 512.772 409.828 492.814 409.828 472.857 409.828 C 472.849 409.388 472.842 408.948 472.834 408.511 C 481.607 408.511 490.38 408.511 499.483 408.511 Z" style="fill: rgb(172, 168, 168);"/>
    <path opacity="1.000000" stroke="none" d="M 499.554 413.528 C 510.856 413.528 521.828 413.528 532.8 413.528 C 532.8 413.965 532.801 414.405 532.801 414.845 C 512.843 414.845 492.885 414.845 472.928 414.845 C 472.92 414.405 472.913 413.965 472.905 413.528 C 481.678 413.528 490.451 413.528 499.554 413.528 Z" style="fill: rgb(172, 168, 168);"/>
    <path opacity="1.000000" stroke="none" d="M 499.766 424.804 C 511.068 424.804 522.04 424.804 533.012 424.804 C 533.012 425.241 533.013 425.681 533.013 426.121 C 513.055 426.121 493.097 426.121 473.14 426.121 C 473.132 425.681 473.125 425.241 473.117 424.804 C 481.89 424.804 490.663 424.804 499.766 424.804 Z" style="fill: rgb(172, 168, 168);"/>
    <path opacity="1.000000" stroke="none" d="M 499.315 420.005 C 510.617 420.005 521.589 420.005 532.561 420.005 C 532.561 420.442 532.562 420.882 532.562 421.322 C 512.604 421.322 492.646 421.322 472.689 421.322 C 472.681 420.882 472.674 420.442 472.666 420.005 C 481.439 420.005 490.212 420.005 499.315 420.005 Z" style="fill: rgb(172, 168, 168);"/>
  </g>
  <g transform="matrix(0.314434, 0, 0, 0.577441, 616.727661, 76.839798)" style="" id="escalier_4" class="escalier" bx:origin="0.482764 0.5">
    <rect x="463.044" y="393" width="82.765" height="39.42" style="stroke-opacity: 0.69; stroke-dashoffset: -3px; paint-order: stroke markers; fill-rule: nonzero; fill: rgb(226, 249, 254);" rx="8.532" ry="8.532"/>
    <path opacity="1.000000" stroke="none" d="M 499.435 396.816 C 510.737 396.816 521.709 396.816 532.681 396.816 C 532.681 397.253 532.682 397.693 532.682 398.133 C 512.724 398.133 492.766 398.133 472.809 398.133 C 472.801 397.693 472.794 397.253 472.786 396.816 C 481.559 396.816 490.332 396.816 499.435 396.816 Z" style="fill: rgb(172, 168, 168);"/>
    <path opacity="1.000000" stroke="none" d="M 499.141 402.593 C 510.443 402.593 521.415 402.593 532.387 402.593 C 532.387 403.03 532.388 403.47 532.388 403.91 C 512.43 403.91 492.472 403.91 472.515 403.91 C 472.507 403.47 472.5 403.03 472.492 402.593 C 481.265 402.593 490.038 402.593 499.141 402.593 Z" style="fill: rgb(172, 168, 168);"/>
    <path opacity="1.000000" stroke="none" d="M 499.483 408.511 C 510.785 408.511 521.757 408.511 532.729 408.511 C 532.729 408.948 532.73 409.388 532.73 409.828 C 512.772 409.828 492.814 409.828 472.857 409.828 C 472.849 409.388 472.842 408.948 472.834 408.511 C 481.607 408.511 490.38 408.511 499.483 408.511 Z" style="fill: rgb(172, 168, 168);"/>
    <path opacity="1.000000" stroke="none" d="M 499.554 413.528 C 510.856 413.528 521.828 413.528 532.8 413.528 C 532.8 413.965 532.801 414.405 532.801 414.845 C 512.843 414.845 492.885 414.845 472.928 414.845 C 472.92 414.405 472.913 413.965 472.905 413.528 C 481.678 413.528 490.451 413.528 499.554 413.528 Z" style="fill: rgb(172, 168, 168);"/>
    <path opacity="1.000000" stroke="none" d="M 499.766 424.804 C 511.068 424.804 522.04 424.804 533.012 424.804 C 533.012 425.241 533.013 425.681 533.013 426.121 C 513.055 426.121 493.097 426.121 473.14 426.121 C 473.132 425.681 473.125 425.241 473.117 424.804 C 481.89 424.804 490.663 424.804 499.766 424.804 Z" style="fill: rgb(172, 168, 168);"/>
    <path opacity="1.000000" stroke="none" d="M 499.315 420.005 C 510.617 420.005 521.589 420.005 532.561 420.005 C 532.561 420.442 532.562 420.882 532.562 421.322 C 512.604 421.322 492.646 421.322 472.689 421.322 C 472.681 420.882 472.674 420.442 472.666 420.005 C 481.439 420.005 490.212 420.005 499.315 420.005 Z" style="fill: rgb(172, 168, 168);"/>
  </g>
  <path style="stroke: rgb(0, 0, 0); fill-rule: evenodd; fill: url(#pattern-0-0); paint-order: fill; fill-opacity: 0.24;" d="M 300 260.429 L 458.191 259.575 L 459.044 274.08 L 476.962 273.227 L 476.962 245.07 L 534.983 245.07 L 534.999 318.496 L 700 319.413 L 700 262.135 L 753.413 262.135 L 753.444 273.274 L 900 269.814 L 900 242.51 L 970.136 243.364 L 970.136 268.108 L 1054.607 268.108 L 1054.607 190.463 L 745.734 190.463 L 743.174 200 L 600 200 L 600 230.565 L 300 228.005 L 300 260.429 Z" id="essentiel_1" class="essentiel" lang="fr">
    <title>Partie essentielle du Bâtiment</title>
  </path>
</svg>